<svg xmlns="http://www.w3.org/2000/svg" width="53" height="40" viewBox="0 0 53 40">
  <metadata><?xpacket begin="﻿" id="W5M0MpCehiHzreSzNTczkc9d"?>
<x:xmpmeta xmlns:x="adobe:ns:meta/" x:xmptk="Adobe XMP Core 5.6-c138 79.159824, 2016/09/14-01:09:01        ">
   <rdf:RDF xmlns:rdf="http://www.w3.org/1999/02/22-rdf-syntax-ns#">
      <rdf:Description rdf:about=""/>
   </rdf:RDF>
</x:xmpmeta>
                                                                                                    
                                                                                                    
                                                                                                    
                                                                                                    
                                                                                                    
                                                                                                    
                                                                                                    
                                                                                                    
                                                                                                    
                                                                                                    
                                                                                                    
                                                                                                    
                                                                                                    
                                                                                                    
                                                                                                    
                                                                                                    
                                                                                                    
                                                                                                    
                                                                                                    
                                                                                                    
                           
<?xpacket end="w"?></metadata>
<defs>
    <style>
      .cls-1 {
        fill: #fff;
        fill-rule: evenodd;
      }
    </style>
  </defs>
  <path id="fa-code" class="cls-1" d="M16.6,32.724a0.931,0.931,0,0,0,0-1.334L5.254,20,16.6,8.608a0.93,0.93,0,0,0,0-1.333L15.155,5.826a0.922,0.922,0,0,0-1.328,0L0.375,19.333a0.93,0.93,0,0,0,0,1.333L13.827,34.174a0.921,0.921,0,0,0,1.328,0ZM33.659,1.8A0.94,0.94,0,0,0,33.024.638l-1.79-.493a0.917,0.917,0,0,0-1.126.638L19.341,38.2a0.94,0.94,0,0,0,.635,1.159l1.79,0.492a0.917,0.917,0,0,0,1.126-.637ZM52.625,20.666a0.93,0.93,0,0,0,0-1.333L39.173,5.826a0.922,0.922,0,0,0-1.328,0L36.4,7.275a0.93,0.93,0,0,0,0,1.333L47.746,20,36.4,31.391a0.931,0.931,0,0,0,0,1.334l1.443,1.449a0.921,0.921,0,0,0,1.328,0Z"/>
</svg>
