<svg xmlns="http://www.w3.org/2000/svg" width="43" height="40" viewBox="0 0 43 40">
  <metadata><?xpacket begin="﻿" id="W5M0MpCehiHzreSzNTczkc9d"?>
<x:xmpmeta xmlns:x="adobe:ns:meta/" x:xmptk="Adobe XMP Core 5.6-c138 79.159824, 2016/09/14-01:09:01        ">
   <rdf:RDF xmlns:rdf="http://www.w3.org/1999/02/22-rdf-syntax-ns#">
      <rdf:Description rdf:about=""/>
   </rdf:RDF>
</x:xmpmeta>
                                                                                                    
                                                                                                    
                                                                                                    
                                                                                                    
                                                                                                    
                                                                                                    
                                                                                                    
                                                                                                    
                                                                                                    
                                                                                                    
                                                                                                    
                                                                                                    
                                                                                                    
                                                                                                    
                                                                                                    
                                                                                                    
                                                                                                    
                                                                                                    
                                                                                                    
                                                                                                    
                           
<?xpacket end="w"?></metadata>
<defs>
    <style>
      .cls-1 {
        fill: #c0301c;
        fill-rule: evenodd;
      }
    </style>
  </defs>
  <path id="fa-font" class="cls-1" d="M18.735,11.223A102.722,102.722,0,0,1,23.49,22.994c-0.491.026-.982,0.052-1.473,0.052-2.558,0-5.117-.078-7.675-0.1ZM0,40a27.765,27.765,0,0,0,4.858-.365,10.275,10.275,0,0,1,1.24-.208c3,0,6.021.52,9.019,0.52a6.434,6.434,0,0,0,.052-0.7c0-.52,0-1.015-0.026-1.511-1.473-.208-5.272-0.287-5.272-2.291,0-.99,2.61-7.813,3.282-9.323l11.629,0.052c0.413,1.067,3.747,8.8,3.747,9.739,0,0.964-1.37,1.146-2.067,1.3l-3.385.729a17.831,17.831,0,0,0-.1,2.031c3.385-.1,6.771-0.39,10.156-0.39,3.282,0,6.564.417,9.846,0.417,0-.235.026-0.443,0.026-0.678a9.651,9.651,0,0,0-.155-1.484c-1.215-.469-3.592-0.625-4.445-1.3a4.571,4.571,0,0,1-.9-1.484C36.2,32.4,35.3,29.609,34.136,26.9c-1.964-4.584-3.747-9.245-5.685-13.854l-5.3-12.5A5.6,5.6,0,0,0,22.87,0H19.562L12.326,18.854,6.2,34.9c-1.085,2.813-3.721,2.292-6.15,3.047Z"/>
</svg>
