<svg xmlns="http://www.w3.org/2000/svg" width="48" height="49" viewBox="0 0 48 49">
  <metadata><?xpacket begin="﻿" id="W5M0MpCehiHzreSzNTczkc9d"?>
<x:xmpmeta xmlns:x="adobe:ns:meta/" x:xmptk="Adobe XMP Core 5.6-c138 79.159824, 2016/09/14-01:09:01        ">
   <rdf:RDF xmlns:rdf="http://www.w3.org/1999/02/22-rdf-syntax-ns#">
      <rdf:Description rdf:about=""/>
   </rdf:RDF>
</x:xmpmeta>
                                                                                                    
                                                                                                    
                                                                                                    
                                                                                                    
                                                                                                    
                                                                                                    
                                                                                                    
                                                                                                    
                                                                                                    
                                                                                                    
                                                                                                    
                                                                                                    
                                                                                                    
                                                                                                    
                                                                                                    
                                                                                                    
                                                                                                    
                                                                                                    
                                                                                                    
                                                                                                    
                           
<?xpacket end="w"?></metadata>
<defs>
    <style>
      .cls-1 {
        fill: #c0301c;
        fill-rule: evenodd;
      }
    </style>
  </defs>
  <path id="fa-support" class="cls-1" d="M23.994,0.867A23.994,23.994,0,1,0,47.988,24.861,23.989,23.989,0,0,0,23.994.867Zm0,3.428A20.676,20.676,0,0,1,33.661,6.7l-5.2,5.2a13.708,13.708,0,0,0-8.944,0l-5.2-5.2A20.676,20.676,0,0,1,23.994,4.295ZM5.838,34.528a20.593,20.593,0,0,1,0-19.335l5.2,5.2a13.71,13.71,0,0,0,0,8.944Zm18.156,10.9a20.677,20.677,0,0,1-9.667-2.41l5.2-5.2a13.708,13.708,0,0,0,8.944,0l5.2,5.2A20.678,20.678,0,0,1,23.994,45.427Zm0-10.283A10.283,10.283,0,1,1,34.277,24.861,10.286,10.286,0,0,1,23.994,35.144Zm12.961-5.811a13.712,13.712,0,0,0,0-8.944l5.2-5.2a20.594,20.594,0,0,1,0,19.335Z"/>
</svg>
