<svg xmlns="http://www.w3.org/2000/svg" width="53" height="40" viewBox="0 0 53 40"><defs><style>.cls-1{fill:#fff;fill-rule:evenodd}</style></defs><path id="fa-code" class="cls-1" d="M16.6 32.724a.931.931 0 0 0 0-1.334L5.254 20 16.6 8.608a.93.93 0 0 0 0-1.333l-1.445-1.449a.922.922 0 0 0-1.328 0L.375 19.333a.93.93 0 0 0 0 1.333l13.452 13.508a.921.921 0 0 0 1.328 0zM33.659 1.8a.94.94 0 0 0-.635-1.162l-1.79-.493a.917.917 0 0 0-1.126.638L19.341 38.2a.94.94 0 0 0 .635 1.159l1.79.492a.917.917 0 0 0 1.126-.637zm18.966 18.866a.93.93 0 0 0 0-1.333L39.173 5.826a.922.922 0 0 0-1.328 0L36.4 7.275a.93.93 0 0 0 0 1.333L47.746 20 36.4 31.391a.931.931 0 0 0 0 1.334l1.443 1.449a.921.921 0 0 0 1.328 0z"/></svg>