<svg xmlns="http://www.w3.org/2000/svg" width="48" height="49" viewBox="0 0 48 49"><defs><style>.cls-1{fill:#fff;fill-rule:evenodd}</style></defs><path id="fa-support" class="cls-1" d="M23.994.867a23.994 23.994 0 1 0 23.994 23.994A23.989 23.989 0 0 0 23.994.867zm0 3.428A20.676 20.676 0 0 1 33.661 6.7l-5.2 5.2a13.708 13.708 0 0 0-8.944 0l-5.2-5.2a20.676 20.676 0 0 1 9.677-2.405zM5.838 34.528a20.593 20.593 0 0 1 0-19.335l5.2 5.2a13.71 13.71 0 0 0 0 8.944zm18.156 10.9a20.677 20.677 0 0 1-9.667-2.41l5.2-5.2a13.708 13.708 0 0 0 8.944 0l5.2 5.2a20.678 20.678 0 0 1-9.677 2.409zm0-10.283a10.283 10.283 0 1 1 10.283-10.284 10.286 10.286 0 0 1-10.283 10.283zm12.961-5.811a13.712 13.712 0 0 0 0-8.944l5.2-5.2a20.594 20.594 0 0 1 0 19.335z"/></svg>