<svg xmlns="http://www.w3.org/2000/svg" width="792" height="792" viewBox="0 0 792 792"><path d="M521.806 792s71.889 0 71.889-71.997V71.997C593.694 0 521.806 0 521.806 0H270.194s-71.889 0-71.889 71.997v648.006C198.306 792 270.194 792 270.194 792h251.612zM396 762.022c-19.841 0-35.944-16.104-35.944-35.944 0-19.842 16.103-35.944 35.944-35.944 19.842 0 35.944 16.103 35.944 35.944S415.842 762.022 396 762.022zM342.083 43.888c0-4.457 2.121-7.944 4.78-7.944h98.272c2.624 0 4.781 3.559 4.781 7.944v2.121c0 4.457-2.157 7.944-4.781 7.944h-98.272c-2.624 0-4.78-3.559-4.78-7.944v-2.121zM234.25 89.861h323.5v575.111h-323.5V89.861z"/></svg>